<svg width="133" height="20" viewBox="0 0 133 20" fill="none" xmlns="http://www.w3.org/2000/svg">
<path d="M112.343 8.20367C112.355 16.3752 112.355 16.4112 112.439 16.792C112.784 18.3549 113.597 19.3087 114.956 19.7496C115.918 20.0662 117.172 20.0782 118.174 19.7896C118.338 19.7415 118.479 19.6774 118.491 19.6494C118.503 19.6213 118.483 19.1604 118.447 18.6274C118.41 18.0904 118.382 17.6335 118.382 17.6055C118.382 17.5774 118.282 17.5935 118.102 17.6576C117.669 17.8019 117.172 17.854 116.735 17.7979C115.938 17.6937 115.457 17.361 115.156 16.6998C114.928 16.2028 114.936 16.5515 114.936 7.93115V0.000110626H113.633H112.327L112.343 8.20367Z" fill="white"/>
<path d="M6.69048 5.55453C6.63437 5.56255 6.42999 5.5906 6.22961 5.61465C5.42809 5.71484 4.49031 6.00338 3.75692 6.3801C1.8493 7.35394 0.594923 9.02511 0.134049 11.1972C-0.00621729 11.8545 -0.0422857 13.1329 0.0538967 13.8262C0.286337 15.4773 0.907515 16.7478 2.03766 17.8739C2.60273 18.439 3.01551 18.7516 3.64471 19.0882C5.20767 19.9298 7.35975 20.2183 9.17519 19.8296C10.5658 19.533 11.8162 18.8197 12.6137 17.8619C12.9303 17.4852 13.267 16.9922 13.2429 16.9481C13.2309 16.9321 12.8862 16.7077 12.4694 16.4472C12.0567 16.1867 11.6278 15.9142 11.5116 15.842L11.3072 15.7138L11.1349 15.9422C10.4576 16.8439 9.57996 17.405 8.48588 17.6374C7.94887 17.7537 7.01109 17.7617 6.47006 17.6575C5.44412 17.4611 4.58649 17.0163 3.93325 16.335C3.55253 15.9382 3.3281 15.6176 3.09967 15.1327C2.76704 14.4233 2.60273 13.6539 2.60273 12.7682C2.60273 10.2234 4.02543 8.3839 6.3819 7.89096C6.95097 7.77073 7.90879 7.76673 8.45382 7.88295C9.53187 8.11539 10.4336 8.67645 11.0788 9.51404L11.3072 9.81461L11.4515 9.72243C11.72 9.55412 13.1187 8.6484 13.1948 8.5963C13.2629 8.54821 13.2509 8.52015 13.0185 8.17149C12.6818 7.66654 12.0046 6.98925 11.4756 6.64059C10.6059 6.0635 9.55992 5.6988 8.40573 5.57457C8.04505 5.53449 6.92292 5.52247 6.69048 5.55453Z" fill="white"/>
<path d="M34.6034 5.57867C33.4812 5.70291 32.311 6.12771 31.3893 6.73687C30.8082 7.1256 30.0147 7.9151 29.646 8.47617C28.8244 9.72253 28.4116 11.1372 28.4116 12.7362C28.4116 16.0666 30.215 18.6955 33.1406 19.6293C34.0343 19.9139 34.8118 20.018 35.8257 19.986C37.589 19.9339 39.0197 19.3488 40.0938 18.2307C40.2741 18.0463 40.4665 17.8299 40.5266 17.7538L40.6348 17.6135V18.7236V19.8377H41.8772H43.1195L43.1115 12.7523L43.0995 5.67085L41.809 5.65882L40.5146 5.65081V6.69278V7.73476L40.0657 7.2819C39.2602 6.47637 38.4226 6.01149 37.2323 5.71092C36.5791 5.54661 35.4089 5.4865 34.6034 5.57867ZM36.6593 7.85499C38.3785 8.13552 39.7652 9.3378 40.2901 11.013C40.715 12.3716 40.5987 14.0347 39.9896 15.241C39.4245 16.3511 38.4226 17.1927 37.2444 17.5333C36.7194 17.6856 36.3827 17.7297 35.7656 17.7297C34.7196 17.7257 33.8339 17.4652 33.0284 16.9162C32.0786 16.275 31.3893 15.1889 31.1368 13.9425C30.9164 12.8605 31.0246 11.566 31.4173 10.6202C32.1707 8.79677 33.9181 7.71472 35.97 7.79888C36.2144 7.8109 36.523 7.83495 36.6593 7.85499Z" fill="white"/>
<path d="M67.9267 5.57466C66.8407 5.6989 65.8628 6.03554 65.1415 6.53649C64.7808 6.78496 64.2638 7.30995 64.0033 7.69068L63.7989 7.99125V6.82103V5.65081H62.5566H61.3142V12.7443V19.8377H62.6167H63.9151L63.9312 15.8181C63.9432 11.9267 63.9472 11.7904 64.0274 11.4218C64.4281 9.60631 65.4501 8.52025 67.1252 8.1275C67.3697 8.0714 67.6783 8.04334 68.2193 8.02731L68.9687 8.00327V6.76893V5.53058L68.6 5.53459C68.3956 5.5386 68.0911 5.55463 67.9267 5.57466Z" fill="white"/>
<path d="M88.9666 5.59072C87.4277 5.77507 86.2454 6.27201 85.3998 7.08155C84.8668 7.59051 84.5102 8.20367 84.3298 8.92103C84.2336 9.30576 84.2336 10.3317 84.3298 10.7164C84.6665 12.071 85.5561 12.8886 87.2554 13.4015C87.8164 13.5739 88.4176 13.6981 89.5277 13.8864C90.0006 13.9666 90.6097 14.0748 90.8782 14.1269C92.6456 14.4836 93.3229 15.0687 93.1746 16.1187C93.0584 16.9282 92.4652 17.4131 91.291 17.6576C90.8141 17.7538 89.3473 17.7778 88.7262 17.6977C87.4197 17.5253 86.1372 17.0965 85.2035 16.5154C85.0191 16.4032 84.8628 16.3151 84.8548 16.3231C84.7907 16.3872 83.8008 18.3269 83.8168 18.3589C83.897 18.4832 84.6063 18.8919 85.1714 19.1324C87.047 19.9339 89.5517 20.2064 91.6196 19.8337C93.1305 19.5612 94.3729 18.8959 95.0542 17.9942C95.3387 17.6175 95.495 17.3049 95.6433 16.812C95.7435 16.4794 95.7555 16.3992 95.7555 15.7901C95.7515 15.237 95.7394 15.0767 95.6673 14.8082C95.3307 13.5819 94.5292 12.8445 92.9782 12.3395C92.349 12.1351 91.9162 12.0389 90.4093 11.7624C89.0628 11.518 88.5378 11.3937 88.0809 11.2174C87.5078 10.997 87.0911 10.6563 86.9067 10.2636C86.8386 10.1153 86.8225 10.0031 86.8225 9.67847C86.8225 9.30576 86.8306 9.25767 86.9548 9.0092C87.3556 8.19165 88.4977 7.73478 90.1448 7.73478C91.5876 7.73478 93.0423 8.11551 94.0683 8.76474C94.1524 8.81684 94.2286 8.85691 94.2326 8.8489C94.2406 8.84088 94.4891 8.38001 94.7856 7.82696L95.3307 6.81304L95.1062 6.67678C94.4811 6.30006 93.3469 5.91533 92.2528 5.71495C91.303 5.53862 89.8523 5.48251 88.9666 5.59072Z" fill="white"/>
<path d="M128.441 12.6281C127.628 12.7042 126.91 13.0369 126.305 13.622C125.824 14.0828 125.528 14.5678 125.327 15.217C125.231 15.5376 125.219 15.6298 125.219 16.2109C125.219 16.792 125.231 16.8841 125.327 17.2048C125.648 18.2467 126.341 19.0603 127.295 19.4971C128.213 19.9259 129.387 19.9259 130.301 19.5011C131.351 19.0162 132.104 18.0784 132.333 16.9723C132.585 15.746 132.225 14.5317 131.343 13.654C130.581 12.8926 129.539 12.5239 128.441 12.6281Z" fill="#D8522E"/>
</svg>
